<svg width="1870" height="71777" xmlns="http://www.w3.org/2000/svg" xmlns:xlink="http://www.w3.org/1999/xlink" overflow="hidden"><defs><clipPath id="clip0"><rect x="1243" y="27" width="1870" height="71777"/></clipPath><clipPath id="clip1"><rect x="1425" y="129" width="1639" height="71626"/></clipPath><linearGradient x1="2652" y1="130" x2="2652" y2="72497" gradientUnits="userSpaceOnUse" spreadMethod="reflect" id="fill2"><stop offset="0" stop-color="#A2C8E8"/><stop offset="0.5" stop-color="#C6DCEF"/><stop offset="1" stop-color="#E3EDF7"/></linearGradient><clipPath id="clip3"><rect x="1425" y="129" width="1639" height="71626"/></clipPath><clipPath id="clip4"><rect x="1244" y="28" width="1867" height="71774"/></clipPath><clipPath id="clip5"><rect x="1244" y="28" width="1867" height="71774"/></clipPath><clipPath id="clip6"><rect x="1244" y="28" width="1867" height="71774"/></clipPath><clipPath id="clip7"><rect x="1244" y="28" width="1867" height="71774"/></clipPath><clipPath id="clip8"><rect x="1244" y="28" width="1867" height="71774"/></clipPath><clipPath id="clip9"><rect x="1244" y="28" width="1867" height="71774"/></clipPath><clipPath id="clip10"><rect x="1244" y="28" width="1867" height="71774"/></clipPath><clipPath id="clip11"><rect x="1244" y="28" width="1867" height="71774"/></clipPath><clipPath id="clip12"><rect x="1244" y="28" width="1867" height="71774"/></clipPath><clipPath id="clip13"><rect x="1244" y="28" width="1867" height="71774"/></clipPath><clipPath id="clip14"><rect x="1244" y="28" width="1867" height="71774"/></clipPath><clipPath id="clip15"><rect x="1244" y="28" width="1867" height="71774"/></clipPath><clipPath id="clip16"><rect x="1244" y="28" width="1867" height="71774"/></clipPath><clipPath id="clip17"><rect x="1244" y="28" width="1867" height="71774"/></clipPath><clipPath id="clip18"><rect x="1244" y="28" width="1867" height="71774"/></clipPath><clipPath id="clip19"><rect x="1244" y="28" width="1867" height="71774"/></clipPath><clipPath id="clip20"><rect x="1244" y="28" width="1867" height="71774"/></clipPath><clipPath id="clip21"><rect x="1244" y="28" width="1867" height="71774"/></clipPath><clipPath id="clip22"><rect x="1244" y="28" width="1867" height="71774"/></clipPath><clipPath id="clip23"><rect x="1244" y="28" width="1867" height="71774"/></clipPath><clipPath id="clip24"><rect x="1244" y="28" width="1867" height="71774"/></clipPath><clipPath id="clip25"><rect x="1244" y="28" width="1867" height="71774"/></clipPath><clipPath id="clip26"><rect x="1244" y="28" width="1867" height="71774"/></clipPath><clipPath id="clip27"><rect x="1244" y="28" width="1867" height="71774"/></clipPath><clipPath id="clip28"><rect x="1244" y="28" width="1867" height="71774"/></clipPath><clipPath id="clip29"><rect x="1244" y="28" width="1867" height="71774"/></clipPath><clipPath id="clip30"><rect x="1244" y="28" width="1867" height="71774"/></clipPath><clipPath id="clip31"><rect x="1244" y="28" width="1867" height="71774"/></clipPath><clipPath id="clip32"><rect x="1244" y="28" width="1867" height="71774"/></clipPath><clipPath id="clip33"><rect x="1244" y="28" width="1867" height="71774"/></clipPath><clipPath id="clip34"><rect x="1244" y="28" width="1867" height="71774"/></clipPath></defs><g clip-path="url(#clip0)" transform="translate(-1243 -27)"><rect x="1244" y="27.9998" width="1867" height="71774" fill="#19304F"/><g clip-path="url(#clip1)"><rect x="2430" y="130" width="444" height="72367" fill="url(#fill2)"/></g><g clip-path="url(#clip3)"><path d="M1612.05 156.005 2056.07 156.005 2056.07 130 1612.05 130Z" fill="#66A0C5"/></g><g clip-path="url(#clip4)"><path d="M1425.5 129.5 3060.5 129.5" stroke="#D9D9D9" stroke-width="3.4375" stroke-linejoin="round" stroke-miterlimit="10" fill="none" fill-rule="evenodd"/></g><g clip-path="url(#clip5)"><text fill="#FFFFFF" font-family="Agency FB,Agency FB_MSFontService,sans-serif" font-weight="400" font-stretch="condensed" font-size="41" transform="matrix(1 0 0 1 1371.62 143)">0</text></g><g clip-path="url(#clip6)"><text fill="#FFFFFF" font-family="Agency FB,Agency FB_MSFontService,sans-serif" font-weight="400" font-stretch="condensed" font-size="41" transform="matrix(1 0 0 1 1300.97 2796)">50000</text></g><g clip-path="url(#clip7)"><text fill="#FFFFFF" font-family="Agency FB,Agency FB_MSFontService,sans-serif" font-weight="400" font-stretch="condensed" font-size="41" transform="matrix(1 0 0 1 1291.64 5449)">100000</text></g><g clip-path="url(#clip8)"><text fill="#FFFFFF" font-family="Agency FB,Agency FB_MSFontService,sans-serif" font-weight="400" font-stretch="condensed" font-size="41" transform="matrix(1 0 0 1 1292.58 8101)">150000</text></g><g clip-path="url(#clip9)"><text fill="#FFFFFF" font-family="Agency FB,Agency FB_MSFontService,sans-serif" font-weight="400" font-stretch="condensed" font-size="41" transform="matrix(1 0 0 1 1283.94 10754)">200000</text></g><g clip-path="url(#clip10)"><text fill="#FFFFFF" font-family="Agency FB,Agency FB_MSFontService,sans-serif" font-weight="400" font-stretch="condensed" font-size="41" transform="matrix(1 0 0 1 1284.88 13407)">250000</text></g><g clip-path="url(#clip11)"><text fill="#FFFFFF" font-family="Agency FB,Agency FB_MSFontService,sans-serif" font-weight="400" font-stretch="condensed" font-size="41" transform="matrix(1 0 0 1 1282.63 16059)">300000</text></g><g clip-path="url(#clip12)"><text fill="#FFFFFF" font-family="Agency FB,Agency FB_MSFontService,sans-serif" font-weight="400" font-stretch="condensed" font-size="41" transform="matrix(1 0 0 1 1283.57 18712)">350000</text></g><g clip-path="url(#clip13)"><text fill="#FFFFFF" font-family="Agency FB,Agency FB_MSFontService,sans-serif" font-weight="400" font-stretch="condensed" font-size="41" transform="matrix(1 0 0 1 1284.24 21365)">400000</text></g><g clip-path="url(#clip14)"><text fill="#FFFFFF" font-family="Agency FB,Agency FB_MSFontService,sans-serif" font-weight="400" font-stretch="condensed" font-size="41" transform="matrix(1 0 0 1 1285.18 24017)">450000</text></g><g clip-path="url(#clip15)"><text fill="#FFFFFF" font-family="Agency FB,Agency FB_MSFontService,sans-serif" font-weight="400" font-stretch="condensed" font-size="41" transform="matrix(1 0 0 1 1283.07 26670)">500000</text></g><g clip-path="url(#clip16)"><text fill="#FFFFFF" font-family="Agency FB,Agency FB_MSFontService,sans-serif" font-weight="400" font-stretch="condensed" font-size="41" transform="matrix(1 0 0 1 1284.01 29323)">550000</text></g><g clip-path="url(#clip17)"><text fill="#FFFFFF" font-family="Agency FB,Agency FB_MSFontService,sans-serif" font-weight="400" font-stretch="condensed" font-size="41" transform="matrix(1 0 0 1 1282.54 31975)">600000</text></g><g clip-path="url(#clip18)"><text fill="#FFFFFF" font-family="Agency FB,Agency FB_MSFontService,sans-serif" font-weight="400" font-stretch="condensed" font-size="41" transform="matrix(1 0 0 1 1283.48 34628)">650000</text></g><g clip-path="url(#clip19)"><text fill="#FFFFFF" font-family="Agency FB,Agency FB_MSFontService,sans-serif" font-weight="400" font-stretch="condensed" font-size="41" transform="matrix(1 0 0 1 1285.06 37281)">700000</text></g><g clip-path="url(#clip20)"><text fill="#FFFFFF" font-family="Agency FB,Agency FB_MSFontService,sans-serif" font-weight="400" font-stretch="condensed" font-size="41" transform="matrix(1 0 0 1 1286 39933)">750000</text></g><g clip-path="url(#clip21)"><text fill="#FFFFFF" font-family="Agency FB,Agency FB_MSFontService,sans-serif" font-weight="400" font-stretch="condensed" font-size="41" transform="matrix(1 0 0 1 1282.24 42586)">800000</text></g><g clip-path="url(#clip22)"><text fill="#FFFFFF" font-family="Agency FB,Agency FB_MSFontService,sans-serif" font-weight="400" font-stretch="condensed" font-size="41" transform="matrix(1 0 0 1 1283.18 45239)">850000</text></g><g clip-path="url(#clip23)"><text fill="#FFFFFF" font-family="Agency FB,Agency FB_MSFontService,sans-serif" font-weight="400" font-stretch="condensed" font-size="41" transform="matrix(1 0 0 1 1282.54 47892)">900000</text></g><g clip-path="url(#clip24)"><text fill="#FFFFFF" font-family="Agency FB,Agency FB_MSFontService,sans-serif" font-weight="400" font-stretch="condensed" font-size="41" transform="matrix(1 0 0 1 1283.48 50544)">950000</text></g><g clip-path="url(#clip25)"><text fill="#FFFFFF" font-family="Agency FB,Agency FB_MSFontService,sans-serif" font-weight="400" font-stretch="condensed" font-size="41" transform="matrix(1 0 0 1 1273.74 53197)">1000000</text></g><g clip-path="url(#clip26)"><text fill="#FFFFFF" font-family="Agency FB,Agency FB_MSFontService,sans-serif" font-weight="400" font-stretch="condensed" font-size="41" transform="matrix(1 0 0 1 1274.68 55850)">1050000</text></g><g clip-path="url(#clip27)"><text fill="#FFFFFF" font-family="Agency FB,Agency FB_MSFontService,sans-serif" font-weight="400" font-stretch="condensed" font-size="41" transform="matrix(1 0 0 1 1283.25 58502)">1100000</text></g><g clip-path="url(#clip28)"><text fill="#FFFFFF" font-family="Agency FB,Agency FB_MSFontService,sans-serif" font-weight="400" font-stretch="condensed" font-size="41" transform="matrix(1 0 0 1 1284.19 61155)">1150000</text></g><g clip-path="url(#clip29)"><text fill="#FFFFFF" font-family="Agency FB,Agency FB_MSFontService,sans-serif" font-weight="400" font-stretch="condensed" font-size="41" transform="matrix(1 0 0 1 1275.55 63808)">1200000</text></g><g clip-path="url(#clip30)"><text fill="#FFFFFF" font-family="Agency FB,Agency FB_MSFontService,sans-serif" font-weight="400" font-stretch="condensed" font-size="41" transform="matrix(1 0 0 1 1276.49 66460)">1250000</text></g><g clip-path="url(#clip31)"><text fill="#FFFFFF" font-family="Agency FB,Agency FB_MSFontService,sans-serif" font-weight="400" font-stretch="condensed" font-size="41" transform="matrix(1 0 0 1 1274.25 69113)">1300000</text></g><g clip-path="url(#clip32)"><text fill="#FFFFFF" font-family="Agency FB,Agency FB_MSFontService,sans-serif" font-weight="400" font-stretch="condensed" font-size="41" transform="matrix(1 0 0 1 1275.19 71766)">1350000</text></g><g clip-path="url(#clip33)"><text fill="#FFFFFF" font-family="Agency FB,Agency FB_MSFontService,sans-serif" font-weight="400" font-stretch="condensed" font-size="41" transform="matrix(1 0 0 1 1804.82 93)">1970</text></g><g clip-path="url(#clip34)"><text fill="#FFFFFF" font-family="Agency FB,Agency FB_MSFontService,sans-serif" font-weight="400" font-stretch="condensed" font-size="41" transform="matrix(1 0 0 1 2621.95 93)">2019</text></g><rect x="1244.5" y="28.5" width="1867" height="71774" stroke="#19304F" stroke-width="3.4375" stroke-linejoin="round" stroke-miterlimit="10" fill="none"/></g></svg>